<svg width="327" height="95" viewBox="0 0 327 95" fill="none" xmlns="http://www.w3.org/2000/svg">
<path d="M28.9007 50.7808C28.9007 57.4673 30.4377 62.6961 33.5116 66.4672C36.6172 70.2383 40.8636 72.1238 46.2508 72.1238C51.7015 72.1238 58.0806 70.4633 63.2777 66.4387L65.7115 68.8724L63.2777 71.3062C58.2391 74.8872 51.5589 76.1167 45.3477 76.1167C39.0731 76.1167 34.0028 73.8667 30.1366 69.3668C26.2705 64.8669 24.3374 58.5131 24.3374 50.3054C24.3374 43.2069 26.3497 37.2334 30.3743 32.3849C34.4306 27.5047 39.6911 25.0646 46.1558 25.0646C52.2085 25.0646 56.8511 27.1878 60.0834 31.4342C63.3158 35.6806 64.9319 41.4798 64.9319 48.8319V50.7808H28.9007ZM60.3686 46.7879C60.1785 41.1788 58.8317 36.8215 56.3282 33.7159C53.8247 30.6103 50.3705 29.0575 45.9656 29.0575C41.4023 29.0575 37.6154 30.5944 34.6049 33.6683C31.626 36.7105 29.788 41.0837 29.0909 46.7879H60.3686Z" fill="#004860"/>
<path fill-rule="evenodd" clip-rule="evenodd" d="M153.328 81.0412V85.9087H163.063C165.828 85.9087 167.863 85.7185 169.621 85.5543C170.957 85.4293 172.134 85.3194 173.349 85.3194C181.297 85.3194 187.438 83.3419 191.774 79.3871C196.147 75.4322 198.333 70.3175 198.333 64.0429C198.333 59.6697 197.059 55.8099 194.512 52.4635C192.002 49.079 186.925 45.2192 179.281 40.884C171.904 36.6249 167.094 33.2595 164.85 30.7877C162.644 28.3159 161.542 24.9885 161.542 20.8054C161.542 16.4703 163.158 12.8957 166.39 10.0816C169.66 7.26758 174.072 5.86055 179.624 5.86055C180.917 5.86055 182.589 5.78961 184.452 5.7106C190.423 5.45729 198.351 5.12101 202.003 6.77322V0.726729C198.558 -0.43065 191.588 0.0503877 186.083 0.430333C183.811 0.587189 181.788 0.726815 180.365 0.726815C172.874 0.726815 166.884 2.74228 162.397 6.77322C157.91 10.8041 155.666 15.7097 155.666 21.4899C155.666 25.749 156.769 29.5138 158.975 32.7841C161.18 36.0165 166.428 40.0474 174.718 44.8769C182.134 49.1741 186.944 52.5775 189.15 55.0874C191.393 57.5592 192.515 60.8866 192.515 65.0696C192.515 69.8231 190.861 73.5308 187.553 76.1927C184.244 78.8167 179.396 80.1286 173.007 80.1286C170.149 80.1286 167.209 80.3351 164.127 80.5516C160.728 80.7903 157.156 81.0412 153.328 81.0412ZM63.0694 65.4737C64.5225 67.4099 66.6583 68.3781 69.4766 68.3781C74.192 68.3781 78.0708 66.0013 81.113 61.2479C84.1933 56.4944 85.7334 50.3719 85.7334 42.8805C85.7334 31.5102 82.2919 22.4406 75.4089 15.6717C68.5259 8.90277 58.8859 5.5183 46.4888 5.5183C34.396 5.5183 24.5279 9.66332 16.8843 17.9534C9.27875 26.2434 5.47599 36.5109 5.47599 48.7558C5.47599 61.1908 9.10763 71.1541 16.3709 78.6455C23.6342 86.099 33.5214 89.8257 46.0325 89.8257C55.5014 89.8257 63.6013 88.1525 70.3322 84.806V90.1109C62.8788 93.1151 54.5887 94.6172 45.4621 94.6172C31.7341 94.6172 20.7251 90.3771 12.4351 81.8969C4.14502 73.4167 0 62.3697 0 48.7558C0 35.1038 4.46825 23.6955 13.4048 14.5309C22.3793 5.32816 33.5975 0.726815 47.0592 0.726815C60.407 0.726815 71.0927 4.64367 79.1166 12.4774C87.1785 20.3111 91.2094 30.2553 91.2094 42.3101C91.2094 51.3226 89.1559 58.719 85.0489 64.4992C80.9799 70.2794 75.8842 73.1695 69.7618 73.1695C65.6688 73.1695 62.4966 72.1059 60.2449 69.9785C61.2526 68.5955 62.1954 67.0843 63.0694 65.4737ZM269.122 83.8933L259.767 58.4528H224.287L214.932 83.8933H208.715L239.574 2.09581H244.936L260.195 42.9946L275.453 83.8933H269.122ZM244.024 15.4435C243.605 14.3027 243.263 13.1809 242.997 12.0781C242.731 11.1274 242.445 10.1767 242.141 9.226H241.913C241.267 11.7358 240.639 13.7703 240.031 15.3294L226.284 53.2621H257.828L244.024 15.4435ZM294.277 85.3194C307.967 85.3194 327 80.1286 327 60.3922V6.77322H321.41V60.2782C321.41 65.1212 319.756 68.4741 317.91 71.2101C315.613 74.6135 311.632 76.8538 307.629 77.7654C307.164 77.8712 306.69 77.9803 306.209 78.0907C302.013 79.0556 297.346 80.1286 294.391 80.1286C292.414 80.1286 290.303 79.7483 288.06 78.9878V84.4638C290.075 85.0342 292.148 85.3194 294.277 85.3194Z" fill="#004860"/>
<rect x="111.954" y="44.5346" width="29.2053" height="9.73509" fill="#004860"/>
</svg>
