<svg width="81" height="94" viewBox="0 0 81 94" fill="none" xmlns="http://www.w3.org/2000/svg">
<path d="M73.8333 33.5325H47.1667V6.96109H7.16667V86.6754H73.8333V33.5325ZM71.0733 26.8897L53.8333 9.71124V26.8897H71.0733ZM3.83333 0.318237H53.8333L80.5 26.8897V89.9968C80.5 90.8777 80.1488 91.7225 79.5237 92.3454C78.8986 92.9683 78.0507 93.3182 77.1667 93.3182H3.83333C2.94928 93.3182 2.10143 92.9683 1.47631 92.3454C0.85119 91.7225 0.5 90.8777 0.5 89.9968V3.63967C0.5 2.75877 0.85119 1.91395 1.47631 1.29106C2.10143 0.668172 2.94928 0.318237 3.83333 0.318237ZM20.5 46.8182H60.5V53.4611H20.5V46.8182ZM20.5 26.8897H37.1667V33.5325H20.5V26.8897ZM20.5 66.7468H60.5V73.3897H20.5V66.7468Z" fill="white"/>
</svg>
