<svg width="35" height="35" viewBox="0 0 35 35" fill="none" xmlns="http://www.w3.org/2000/svg">
<circle cx="17.5" cy="17.5" r="17.5" fill="#004960"/>
<path d="M15.321 21.2892L13.5177 23.0926L12.8736 22.4485C12.5945 22.1694 12.1437 22.1694 11.8646 22.4485C11.5855 22.7276 11.5855 23.1785 11.8646 23.4575L13.0024 24.5954C13.1312 24.7242 13.3245 24.8101 13.4962 24.8101C13.668 24.8101 13.8612 24.7457 13.99 24.5954L16.2871 22.2982C16.5662 22.0191 16.5662 21.5683 16.2871 21.2892C16.051 21.0101 15.6001 21.0101 15.321 21.2892Z" fill="white"/>
<path d="M22.4486 25.2395C22.4486 25.7976 21.9978 26.2485 21.4396 26.2485H9.7177C9.15952 26.2485 8.70868 25.7976 8.70868 25.2395V13.5605C8.70868 13.3673 8.85896 13.217 9.05218 13.217H12.1437C12.7233 13.217 13.1956 12.7447 13.1956 12.1651V9.05211C13.1956 8.8589 13.3459 8.70862 13.5391 8.70862H21.4396C21.9978 8.70862 22.4486 9.15946 22.4486 9.71764V15.8577L23.8655 14.2905V9.71764C23.8655 8.36512 22.7706 7.29169 21.4396 7.29169H13.4103C12.7662 7.29169 12.1437 7.54931 11.6713 8.00015L8.00021 11.6928C7.54937 12.1436 7.29175 12.7662 7.29175 13.4102V25.2609C7.29175 26.592 8.38665 27.7084 9.73917 27.7084H21.461C22.8136 27.7084 23.887 26.6135 23.887 25.2824V22.2768L22.4701 23.844V25.2395H22.4486Z" fill="white"/>
<path d="M19.5717 18.2407H11.5854C11.199 18.2407 10.877 18.5627 10.877 18.9491C10.877 19.3356 11.199 19.6576 11.5854 19.6576H18.9706L20.087 18.4339C19.9582 18.3265 19.765 18.2407 19.5717 18.2407Z" fill="white"/>
<path d="M19.5717 15.0204H11.5854C11.199 15.0204 10.877 15.3424 10.877 15.7289C10.877 16.1153 11.199 16.4373 11.5854 16.4373H19.5717C19.9582 16.4373 20.2802 16.1153 20.2802 15.7289C20.2802 15.3424 19.9582 15.0204 19.5717 15.0204Z" fill="white"/>
<path d="M19.572 11.7786H15.8579C15.4714 11.7786 15.1494 12.1007 15.1494 12.4871C15.1494 12.8735 15.4714 13.1956 15.8579 13.1956H19.5934C19.9799 13.1956 20.3019 12.8735 20.3019 12.4871C20.3019 12.1007 19.9584 11.7786 19.572 11.7786Z" fill="white"/>
<path d="M18.1974 23.8653C18.0686 24.2518 18.4551 24.5953 18.82 24.4235L20.881 23.5433C21.0742 23.4574 21.246 23.3501 21.3963 23.1998L19.1635 21.1818C19.0347 21.3535 18.9488 21.5253 18.8844 21.7399L18.1974 23.8653Z" fill="white"/>
<path d="M27.4076 15.7717L26.0336 14.5265C25.776 14.2904 25.3895 14.3119 25.1534 14.5695L19.915 20.3231L22.1907 22.4055L27.4505 16.6305C27.6867 16.3943 27.6652 15.9864 27.4076 15.7717Z" fill="white"/>
</svg>
