<svg width="35" height="35" viewBox="0 0 35 35" fill="none" xmlns="http://www.w3.org/2000/svg">
<circle cx="17.5" cy="17.5" r="17.5" fill="#004960"/>
<path d="M18.1818 13.9484L18.8317 14.5084C18.8519 14.5249 18.8775 14.5329 18.9033 14.5305C18.929 14.5282 18.9529 14.5157 18.9698 14.4957L21.0743 11.9551C21.0906 11.9346 21.0985 11.9085 21.0961 11.8822C21.0938 11.8559 21.0815 11.8315 21.0619 11.8143L20.4107 11.2544L18.1818 13.9484ZM17.2029 15.5737L12.072 11.1578L11.0734 12.3641L16.2046 16.78L17.2029 15.5737ZM22.8164 8.7929L17.6864 4.375L16.6864 5.58258L21.8179 9.9985L22.8164 8.7929ZM23.409 19.1079H8.85687C8.67636 19.1045 8.49868 19.1541 8.34504 19.2508C8.19139 19.3474 8.06826 19.4872 7.99033 19.6532C7.53089 20.593 7.29175 21.6288 7.29175 22.6789C7.29175 23.729 7.53089 24.7647 7.99033 25.7045C8.06829 25.8706 8.19142 26.0103 8.34506 26.107C8.4987 26.2036 8.67637 26.2532 8.85687 26.2498H27.8343C27.9556 26.2492 28.0717 26.1998 28.1573 26.1122C28.2429 26.0246 28.2911 25.906 28.2913 25.7824V25.3278C28.291 25.2043 28.2428 25.0859 28.1572 24.9986C28.0715 24.9112 27.9554 24.8621 27.8343 24.8618H10.0902C9.8779 24.8627 9.6702 24.7987 9.49387 24.6781C9.31755 24.5575 9.18069 24.3858 9.10092 24.1851C8.90619 23.7068 8.80595 23.194 8.80595 22.6762C8.80595 22.1583 8.90619 21.6455 9.10092 21.1672C9.18117 20.9669 9.31832 20.7957 9.49474 20.6756C9.67117 20.5554 9.8788 20.4918 10.0909 20.493H24.7738L23.409 19.1079ZM23.7352 18.5557C23.7473 18.5658 23.7582 18.5773 23.7678 18.5899L25.7169 20.5688C25.8329 20.6781 25.9238 20.7897 26.0558 20.9027C26.9024 21.6317 28.2434 21.5276 28.8511 20.6566C29.1125 20.2404 29.2167 19.7416 29.1443 19.2529C29.0719 18.7643 28.8279 18.3191 28.4576 18.0002C28.414 17.9636 28.3693 17.9279 28.3244 17.8949L21.2226 12.7463L19.7595 14.5136L23.7352 18.5557ZM26.5434 24.2347C26.3241 23.8687 26.1846 23.4588 26.1345 23.0329C26.0844 22.607 26.1249 22.175 26.2532 21.7665C25.9285 21.608 25.6355 21.3895 25.389 21.1221H10.0909C10 21.1198 9.91061 21.1462 9.83487 21.1975C9.75912 21.2489 9.7007 21.3227 9.66751 21.4091C9.33888 22.2219 9.33888 23.1343 9.66751 23.9472C9.70071 24.0336 9.75912 24.1075 9.83485 24.1589C9.91058 24.2103 9.99998 24.2368 10.0909 24.2347H26.5434ZM22.8487 22.3646C22.9303 22.3646 23.0085 22.3976 23.0661 22.4564C23.1238 22.5152 23.1562 22.595 23.1562 22.6781C23.1562 22.7613 23.1238 22.841 23.0661 22.8999C23.0085 22.9587 22.9303 22.9917 22.8487 22.9917H11.0073C10.9669 22.9917 10.927 22.9836 10.8896 22.9678C10.8523 22.9521 10.8184 22.929 10.7899 22.8999C10.7613 22.8707 10.7387 22.8362 10.7232 22.7981C10.7078 22.7601 10.6998 22.7193 10.6998 22.6781C10.6998 22.637 10.7078 22.5962 10.7232 22.5582C10.7387 22.5201 10.7613 22.4855 10.7899 22.4564C10.8184 22.4273 10.8523 22.4042 10.8896 22.3885C10.927 22.3727 10.9669 22.3646 11.0073 22.3646H22.8487ZM13.1502 11.2673L16.9156 14.5074L20.7394 9.8882L16.9742 6.6479L13.1502 11.2673Z" fill="white"/>
</svg>
