<svg width="35" height="35" viewBox="0 0 35 35" fill="none" xmlns="http://www.w3.org/2000/svg">
<circle cx="17.5" cy="17.5" r="17.5" fill="#004960"/>
<path d="M24.9131 14.5833H19.5659V8.74999H11.5451V26.25H24.9131V14.5833ZM24.3597 13.125L20.9027 9.35374V13.125H24.3597ZM10.8767 7.29166H20.9027L26.2499 13.125V26.9792C26.2499 27.1725 26.1795 27.358 26.0541 27.4948C25.9288 27.6315 25.7588 27.7083 25.5815 27.7083H10.8767C10.6994 27.7083 10.5294 27.6315 10.404 27.4948C10.2787 27.358 10.2083 27.1725 10.2083 26.9792V8.02082C10.2083 7.82744 10.2787 7.64197 10.404 7.50522C10.5294 7.36848 10.6994 7.29166 10.8767 7.29166ZM14.2187 17.5H22.2395V18.9583H14.2187V17.5ZM14.2187 13.125H17.5607V14.5833H14.2187V13.125ZM14.2187 21.875H22.2395V23.3333H14.2187V21.875Z" fill="white"/>
</svg>
