<svg width="35" height="35" viewBox="0 0 35 35" fill="none" xmlns="http://www.w3.org/2000/svg">
<circle cx="17.5" cy="17.5" r="17.5" fill="#004960"/>
<path d="M18.5 7.29169C18.8425 7.29169 19.1713 7.43588 19.4075 7.68981L23.4075 12.0641C23.6275 12.3014 23.75 12.6166 23.75 12.9433V23.8802C23.75 24.2187 23.6183 24.5432 23.3839 24.7825C23.1495 25.0218 22.8315 25.1563 22.5 25.1563H10C9.66848 25.1563 9.35054 25.0218 9.11612 24.7825C8.8817 24.5432 8.75 24.2187 8.75 23.8802V8.56773C8.75 8.2293 8.8817 7.90474 9.11612 7.66543C9.35054 7.42613 9.66848 7.29169 10 7.29169H18.5ZM22.5 13.6719H18.125C17.9592 13.6719 17.8003 13.6047 17.6831 13.485C17.5658 13.3654 17.5 13.2031 17.5 13.0339V8.56773H10V23.8802H22.5V13.6719ZM13.125 21.3281C12.9592 21.3281 12.8003 21.2609 12.6831 21.1413C12.5658 21.0216 12.5 20.8593 12.5 20.6901C12.5 20.5209 12.5658 20.3586 12.6831 20.239C12.8003 20.1193 12.9592 20.0521 13.125 20.0521H19.375C19.5408 20.0521 19.6997 20.1193 19.8169 20.239C19.9342 20.3586 20 20.5209 20 20.6901C20 20.8593 19.9342 21.0216 19.8169 21.1413C19.6997 21.2609 19.5408 21.3281 19.375 21.3281H13.125ZM13.125 17.5C12.9592 17.5 12.8003 17.4328 12.6831 17.3131C12.5658 17.1935 12.5 17.0312 12.5 16.862C12.5 16.6928 12.5658 16.5305 12.6831 16.4109C12.8003 16.2912 12.9592 16.224 13.125 16.224H19.375C19.5408 16.224 19.6997 16.2912 19.8169 16.4109C19.9342 16.5305 20 16.6928 20 16.862C20 17.0312 19.9342 17.1935 19.8169 17.3131C19.6997 17.4328 19.5408 17.5 19.375 17.5H13.125ZM14.375 27.7084C14.2092 27.7084 14.0503 27.6411 13.9331 27.5215C13.8158 27.4018 13.75 27.2395 13.75 27.0703C13.75 26.9011 13.8158 26.7388 13.9331 26.6192C14.0503 26.4995 14.2092 26.4323 14.375 26.4323H25V15.586C25 15.4167 25.0658 15.2545 25.1831 15.1348C25.3003 15.0152 25.4592 14.9479 25.625 14.9479C25.7908 14.9479 25.9497 15.0152 26.0669 15.1348C26.1842 15.2545 26.25 15.4167 26.25 15.586V26.4323C26.25 26.7707 26.1183 27.0953 25.8839 27.3346C25.6495 27.5739 25.3315 27.7084 25 27.7084H14.375Z" fill="white"/>
</svg>
