<svg width="44" height="44" viewBox="0 0 44 44" fill="none" xmlns="http://www.w3.org/2000/svg">
<circle cx="22" cy="22" r="22" fill="#004960"/>
<path d="M22 7C25.8675 7 29 9.78444 29 13.2222C29 16.66 25.8675 19.4444 22 19.4444C18.1325 19.4444 15 16.66 15 13.2222C15 9.78444 18.1325 7 22 7ZM29 23.3956C29 25.0444 28.51 28.8867 25.1675 33.18L23.75 25.6667L25.395 22.7422C24.31 22.6333 23.1725 22.5556 22 22.5556C20.8275 22.5556 19.69 22.6333 18.605 22.7422L20.25 25.6667L18.8325 33.18C15.49 28.8867 15 25.0444 15 23.3956C10.8175 24.4844 8 26.4444 8 28.7778V35H36V28.7778C36 26.4444 33.2 24.4844 29 23.3956Z" fill="white"/>
</svg>
