<svg width="35" height="35" viewBox="0 0 35 35" fill="none" xmlns="http://www.w3.org/2000/svg">
<circle cx="17.5" cy="17.5" r="17.5" fill="#004960"/>
<path d="M21.0136 17.3488C21.0136 23.298 18.1414 26.2726 12.3971 26.2726C11.9331 26.2726 11.3763 26.2166 10.7267 26.1045C10.077 25.9925 9.41816 25.8243 8.75 25.6002V20.0106C9.22328 20.3374 9.74761 20.6036 10.323 20.8091C10.9076 21.0052 11.3902 21.1033 11.7707 21.1033C12.8471 21.1033 13.6499 20.7717 14.1788 20.1086C14.7171 19.4362 14.9862 18.3995 14.9862 16.9986V5.83333H21.0136V17.3488Z" fill="white"/>
<path d="M22.961 18.332L22.9608 18.3319C20.751 16.939 17.8195 17.6188 16.4465 19.7984C15.0425 22.0096 15.7248 24.9206 17.9122 26.3126C19.3867 27.2517 21.2492 27.2853 22.7593 26.4345L25.7171 29.3449L25.8939 29.5188L26.0692 29.3435L27.448 27.9647L27.6242 27.7885L27.4486 27.6117L24.5307 24.6749C25.7851 22.4878 25.0945 19.6795 22.961 18.332ZM20.437 24.5622C19.8456 24.5622 19.2784 24.3273 18.8603 23.9091C18.4421 23.491 18.2072 22.9238 18.2072 22.3324C18.2072 21.7411 18.4421 21.1739 18.8603 20.7557C19.2784 20.3376 19.8456 20.1027 20.437 20.1027C21.0283 20.1027 21.5955 20.3376 22.0136 20.7557C22.4318 21.1739 22.6667 21.7411 22.6667 22.3324C22.6667 22.9238 22.4318 23.491 22.0136 23.9091C21.5955 24.3273 21.0283 24.5622 20.437 24.5622Z" fill="white" stroke="#004860" stroke-width="0.5"/>
</svg>
