<svg width="35" height="35" viewBox="0 0 35 35" fill="none" xmlns="http://www.w3.org/2000/svg">
<circle cx="17.5" cy="17.5" r="17.5" fill="#004960"/>
<path d="M9.35772 25.2778C8.78958 25.2778 8.30339 25.0757 7.89914 24.6714C7.4949 24.2672 7.29244 23.7806 7.29175 23.2118V10.816C7.29175 10.2478 7.49421 9.76164 7.89914 9.3574C8.30407 8.95315 8.79027 8.75069 9.35772 8.75H25.8855C26.4536 8.75 26.9402 8.95247 27.3451 9.3574C27.75 9.76233 27.9522 10.2485 27.9515 10.816V23.2118C27.9515 23.7799 27.7493 24.2665 27.3451 24.6714C26.9409 25.0763 26.4543 25.2785 25.8855 25.2778H9.35772ZM17.6216 18.0469L9.35772 12.8819V23.2118H25.8855V12.8819L17.6216 18.0469ZM17.6216 15.9809L25.8855 10.816H9.35772L17.6216 15.9809ZM9.35772 12.8819V10.816V23.2118V12.8819Z" fill="white"/>
</svg>
