<svg width="35" height="35" viewBox="0 0 35 35" fill="none" xmlns="http://www.w3.org/2000/svg">
<circle cx="17.5" cy="17.5" r="17.5" fill="#004960"/>
<path d="M18.0791 25.6289V28.2778H16.5776V25.7266C14.771 25.7266 13.3021 25.3766 12.1709 24.6768V21.9546C12.6673 22.3859 13.3387 22.748 14.1851 23.041C15.0396 23.334 15.8371 23.4805 16.5776 23.4805V18.0483C14.6571 17.1613 13.4119 16.3434 12.8423 15.5947C12.2808 14.846 12 13.959 12 12.9336C12 11.721 12.4313 10.6753 13.2939 9.79639C14.1566 8.90934 15.2511 8.3763 16.5776 8.19727V6H18.0791V8.14844C19.7881 8.19727 20.9681 8.42513 21.6191 8.83203V11.4443C20.7321 10.7933 19.5521 10.4434 18.0791 10.3945V16.022C19.8695 16.8521 21.0942 17.6577 21.7534 18.439C22.4126 19.2202 22.7422 20.1032 22.7422 21.0879C22.7422 22.2842 22.3312 23.2852 21.5093 24.0908C20.6873 24.8965 19.5439 25.4092 18.0791 25.6289ZM16.5776 15.3262V10.4556C15.9673 10.5776 15.4831 10.8381 15.125 11.2368C14.7669 11.6356 14.5879 12.1198 14.5879 12.6895C14.5879 13.2917 14.7344 13.784 15.0273 14.1665C15.3203 14.549 15.8371 14.9355 16.5776 15.3262ZM18.0791 18.7075V23.4072C19.4626 23.1143 20.1543 22.394 20.1543 21.2466C20.1543 20.2863 19.4626 19.4399 18.0791 18.7075Z" fill="white"/>
</svg>
