<svg width="35" height="35" viewBox="0 0 35 35" fill="none" xmlns="http://www.w3.org/2000/svg">
<circle cx="17.5" cy="17.5" r="17.5" fill="#004960"/>
<path d="M19.6874 12.3958H24.7916V13.8542H19.6874V12.3958ZM19.6874 16.0417H24.7916V17.5H19.6874V16.0417ZM19.6874 19.6875H24.7916V21.1458H19.6874V19.6875ZM10.2083 12.3958H15.3124V13.8542H10.2083V12.3958ZM10.2083 16.0417H15.3124V17.5H10.2083V16.0417ZM10.2083 19.6875H15.3124V21.1458H10.2083V19.6875Z" fill="white"/>
<path d="M26.2501 8.75H8.75008C8.36331 8.75 7.99237 8.90365 7.71888 9.17714C7.44539 9.45063 7.29175 9.82156 7.29175 10.2083V23.3333C7.29175 23.7201 7.44539 24.091 7.71888 24.3645C7.99237 24.638 8.36331 24.7917 8.75008 24.7917H26.2501C26.6369 24.7917 27.0078 24.638 27.2813 24.3645C27.5548 24.091 27.7084 23.7201 27.7084 23.3333V10.2083C27.7084 9.82156 27.5548 9.45063 27.2813 9.17714C27.0078 8.90365 26.6369 8.75 26.2501 8.75ZM8.75008 10.2083H16.7709V23.3333H8.75008V10.2083ZM18.2292 23.3333V10.2083H26.2501V23.3333H18.2292Z" fill="white"/>
</svg>
