<svg width="81" height="81" viewBox="0 0 81 81" fill="none" xmlns="http://www.w3.org/2000/svg">
<path d="M74.2778 80.117L46.2778 52.117C44.0556 53.8947 41.5 55.3022 38.6111 56.3392C35.7222 57.3762 32.6482 57.8947 29.3889 57.8947C21.3148 57.8947 14.4822 55.0977 8.89111 49.5036C3.3 43.9096 0.502965 37.077 0.500002 29.0059C0.497039 20.9347 3.29408 14.1022 8.89111 8.50808C14.4882 2.914 21.3207 0.116966 29.3889 0.116966C37.457 0.116966 44.2911 2.914 49.8911 8.50808C55.4911 14.1022 58.2867 20.9347 58.2778 29.0059C58.2778 32.2651 57.7593 35.3392 56.7222 38.2281C55.6852 41.117 54.2778 43.6725 52.5 45.8947L80.5 73.8947L74.2778 80.117ZM29.3889 49.0059C34.9444 49.0059 39.6674 47.0622 43.5578 43.1747C47.4482 39.2873 49.3919 34.5644 49.3889 29.0059C49.3859 23.4473 47.4422 18.7259 43.5578 14.8414C39.6733 10.957 34.9504 9.01178 29.3889 9.00586C23.8274 8.99993 19.1059 10.9451 15.2244 14.8414C11.343 18.7377 9.39778 23.4592 9.38889 29.0059C9.38 34.5525 11.3252 39.2755 15.2244 43.1747C19.1237 47.074 23.8452 49.0177 29.3889 49.0059Z" fill="white"/>
</svg>
