<svg width="35" height="35" viewBox="0 0 35 35" fill="none" xmlns="http://www.w3.org/2000/svg">
<circle cx="17.5" cy="17.5" r="17.5" fill="#004960"/>
<path d="M18.5274 7.29169H10.7055C10.1869 7.29169 9.68947 7.49281 9.32275 7.85082C8.95602 8.20882 8.75 8.69438 8.75 9.20068V24.4726C8.75 24.9789 8.95602 25.4645 9.32275 25.8225C9.68947 26.1805 10.1869 26.3816 10.7055 26.3816H17.5496C17.1488 26.143 16.7674 25.8471 16.435 25.5226C15.8207 24.9709 15.3241 24.3062 14.9738 23.5666C14.6234 22.827 14.4262 22.0271 14.3935 21.2128C14.3608 20.3986 14.4932 19.5861 14.7832 18.822C15.0731 18.0579 15.5149 17.3572 16.083 16.7603C18.2243 14.4504 21.7832 14.0972 24.3938 15.8821V13.0187L18.5274 7.29169ZM17.5496 13.9732V8.72343L22.9272 13.9732H17.5496ZM24.6969 23.4227C25.9973 21.4087 25.3715 18.7456 23.3281 17.4857C21.265 16.2162 18.5274 16.8366 17.2465 18.822C15.9364 20.836 16.5719 23.4895 18.6154 24.759C20.0429 25.6466 21.8615 25.6466 23.2987 24.7781L26.3493 27.7084L27.7083 26.3816L24.6969 23.4227ZM20.9717 23.5181C20.3234 23.5181 19.7017 23.2667 19.2433 22.8192C18.7849 22.3717 18.5274 21.7647 18.5274 21.1319C18.5274 20.499 18.7849 19.8921 19.2433 19.4446C19.7017 18.997 20.3234 18.7456 20.9717 18.7456C21.62 18.7456 22.2417 18.997 22.7001 19.4446C23.1585 19.8921 23.4161 20.499 23.4161 21.1319C23.4161 21.7647 23.1585 22.3717 22.7001 22.8192C22.2417 23.2667 21.62 23.5181 20.9717 23.5181Z" fill="white"/>
</svg>
