<svg width="81" height="81" viewBox="0 0 81 81" fill="none" xmlns="http://www.w3.org/2000/svg">
<path fill-rule="evenodd" clip-rule="evenodd" d="M56.7705 3.5854C76.9472 12.5714 86.0189 36.2099 77.0342 56.3857C68.0495 76.5615 44.4082 85.6328 24.2315 76.6485C4.05312 67.6643 -5.01856 44.024 3.96612 23.8482C12.9525 3.6724 36.5921 -5.39887 56.7705 3.5854ZM54.442 30.5621C55.0988 29.0934 54.8975 27.8448 54.268 26.4461C53.7682 25.3339 53.1063 24.2985 52.3097 23.3638C50.3702 21.0866 47.7585 19.5241 44.891 18.7275C44.6692 17.9309 44.236 17.223 43.6577 16.6669C42.8355 15.8789 41.7233 15.3927 40.5019 15.3927C39.2805 15.3927 38.1683 15.8772 37.3461 16.6652C36.7678 17.2196 36.3362 17.9275 36.1127 18.7241C32.1722 19.8124 28.6548 22.4154 26.8551 26.1408C25.2977 29.3629 25.2243 33.2385 26.7664 36.4811C28.3102 39.7255 31.2118 41.9686 34.4973 43.2786C37.5491 44.4948 40.3535 44.3328 43.0589 45.3903C49.0635 47.7409 45.72 52.9776 40.5002 52.9776C34.6952 52.9776 35.7647 48.911 32.5032 47.6437C31.4165 47.2206 30.1696 47.2121 29.0215 47.7187C26.7238 48.7302 25.6764 51.4237 26.6879 53.7213C28.1942 57.1209 31.1624 59.6676 34.5962 60.9981C35.0926 61.1909 35.5993 61.3597 36.111 61.503C36.3328 62.2996 36.7644 63.0092 37.3444 63.5653C38.1666 64.355 39.2788 64.8395 40.5019 64.8395C42.5455 64.8395 44.3434 63.4681 44.891 61.5064C45.8326 61.2454 46.735 60.9043 47.5879 60.4932C52.1152 58.2979 55.3615 53.9772 55.3615 48.8274C55.3615 43.195 51.7007 39.108 46.6804 37.0508C43.383 35.6999 40.826 35.9438 38.0199 34.8879C35.9285 34.1016 33.9002 32.4095 35.1029 30.0248C36.065 28.1177 38.4856 27.2529 40.5036 27.2529C42.2742 27.2529 44.1694 27.8636 45.3652 29.2214C45.645 29.5386 45.8633 29.873 46.0117 30.2158C46.0424 30.2858 46.0561 30.3387 46.0817 30.4052C47.0028 32.6943 49.6128 33.8355 51.9191 32.9536C53.0876 32.5067 53.9661 31.6265 54.442 30.5621ZM52.0743 28.2013C52.0351 28.0632 51.9873 27.942 51.9327 27.8073C51.5267 26.8299 50.9621 25.919 50.2661 25.102C48.5193 23.0499 46.051 21.7041 43.4325 21.1395L42.4107 20.9194L42.3681 19.8755C42.3271 18.8742 41.5015 18.0912 40.5019 18.0912C39.5022 18.0912 38.6766 18.8742 38.6357 19.8755L38.593 20.9194L37.5712 21.1395C34.0913 21.89 30.8519 24.0546 29.2774 27.3143C28.0748 29.8047 28.0066 32.8291 29.2007 35.3383C30.4391 37.9413 32.8597 39.7391 35.4884 40.7882C38.4532 41.9703 41.2098 41.7826 44.0398 42.8897C45.1247 43.3144 46.0714 43.8586 46.8459 44.5136C48.144 45.6121 48.9356 47.1149 48.9356 48.8326C48.9356 51.8859 46.5098 54.2092 43.7805 55.1439C42.7741 55.4885 41.667 55.6795 40.5019 55.6795C39.6131 55.6795 38.7483 55.5653 37.9278 55.3537C35.6743 54.7721 33.5267 53.317 32.5612 51.1422C32.1449 50.1972 31.0515 49.7725 30.1065 50.1887C29.1614 50.6049 28.7367 51.6983 29.1529 52.6433C29.6015 53.6548 30.219 54.5861 30.9713 55.41C33.1753 57.8169 35.5396 58.6578 38.5913 59.3196L38.6323 60.3636C38.6715 61.3666 39.4971 62.1495 40.4985 62.1495C41.4981 62.1495 42.3254 61.3666 42.3646 60.3653L42.4073 59.3213L43.4291 59.1013C44.485 58.8744 45.4863 58.5265 46.4143 58.0761C50.0136 56.3311 52.6594 52.9452 52.6594 48.8343C52.6594 44.3106 49.6537 41.1839 45.6535 39.5447C41.5339 37.856 34.9238 38.5144 32.6192 33.8065C31.8396 32.2133 31.901 30.3966 32.6959 28.8205C34.1305 25.9787 37.4365 24.5629 40.4967 24.5629C43.0368 24.5629 45.6774 25.5113 47.3815 27.4474C47.8745 28.0086 48.2686 28.6397 48.5381 29.322C48.5534 29.3612 48.5671 29.3868 48.5841 29.4244C48.9697 30.354 50.0171 30.7992 50.9553 30.441C51.8594 30.093 52.3421 29.1259 52.0743 28.2013ZM54.3294 9.06944C45.7525 5.25023 36.442 5.26729 28.3256 8.38202C20.204 11.4985 13.2715 17.7143 9.45211 26.2892C5.63273 34.8658 5.64979 44.1758 8.76466 52.2919C11.8812 60.413 18.0973 67.3453 26.6726 71.1645C35.2496 74.9837 44.5601 74.9666 52.6765 71.8519C60.798 68.7355 67.7305 62.5196 71.5499 53.9448C75.3693 45.3682 75.3522 36.0581 72.2374 27.942C69.1208 19.8209 62.9047 12.8887 54.3294 9.06944ZM69.7195 28.9007C66.8503 21.4226 61.1272 15.0396 53.2326 11.524C45.3396 8.00845 36.7644 8.02723 29.2825 10.8997C21.8041 13.7688 15.4209 19.4917 11.9051 27.386C8.38937 35.2786 8.40814 43.8534 11.2808 51.3349C14.15 58.813 19.8731 65.196 27.7677 68.7116C35.6607 72.2272 44.236 72.2084 51.7178 69.3359C59.1962 66.4668 65.5795 60.744 69.0952 52.8497C72.6109 44.9571 72.5922 36.3839 69.7195 28.9007Z" fill="white"/>
</svg>
