<svg width="80" height="64" viewBox="0 0 80 64" fill="none" xmlns="http://www.w3.org/2000/svg">
<path d="M48.5716 15.2079H68.5716V20.9222H48.5716V15.2079ZM48.5716 29.4936H68.5716V35.2079H48.5716V29.4936ZM48.5716 43.7793H68.5716V49.4936H48.5716V43.7793ZM11.4287 15.2079H31.4287V20.9222H11.4287V15.2079ZM11.4287 29.4936H31.4287V35.2079H11.4287V29.4936ZM11.4287 43.7793H31.4287V49.4936H11.4287V43.7793Z" fill="white"/>
<path d="M74.2857 0.92215H5.71429C4.19876 0.92215 2.74531 1.52419 1.67368 2.59582C0.602039 3.66746 0 5.12091 0 6.63644V58.065C0 59.5805 0.602039 61.034 1.67368 62.1056C2.74531 63.1773 4.19876 63.7793 5.71429 63.7793H74.2857C75.8012 63.7793 77.2547 63.1773 78.3263 62.1056C79.398 61.034 80 59.5805 80 58.065V6.63644C80 5.12091 79.398 3.66746 78.3263 2.59582C77.2547 1.52419 75.8012 0.92215 74.2857 0.92215ZM5.71429 6.63644H37.1429V58.065H5.71429V6.63644ZM42.8571 58.065V6.63644H74.2857V58.065H42.8571Z" fill="white"/>
</svg>
