<svg width="81" height="93" viewBox="0 0 81 93" fill="none" xmlns="http://www.w3.org/2000/svg">
<path d="M45.0714 0.951599C46.6371 0.951599 48.14 1.59947 49.22 2.7404L67.5057 22.3943C68.5114 23.4607 69.0714 24.8768 69.0714 26.3445V75.4849C69.0714 77.0055 68.4694 78.4638 67.3978 79.539C66.3261 80.6142 64.8727 81.2183 63.3571 81.2183H6.21429C4.69876 81.2183 3.24531 80.6142 2.17368 79.539C1.10204 78.4638 0.5 77.0055 0.5 75.4849V6.68493C0.5 5.16436 1.10204 3.70606 2.17368 2.63085C3.24531 1.55565 4.69876 0.951599 6.21429 0.951599L45.0714 0.951599ZM63.3571 29.6183H43.3571C42.5994 29.6183 41.8727 29.3162 41.3368 28.7786C40.801 28.241 40.5 27.5119 40.5 26.7516V6.68493H6.21429V75.4849H63.3571V29.6183ZM20.5 64.0183C19.7422 64.0183 19.0155 63.7162 18.4797 63.1786C17.9439 62.641 17.6429 61.9119 17.6429 61.1516C17.6429 60.3913 17.9439 59.6622 18.4797 59.1246C19.0155 58.587 19.7422 58.2849 20.5 58.2849H49.0714C49.8292 58.2849 50.5559 58.587 51.0917 59.1246C51.6276 59.6622 51.9286 60.3913 51.9286 61.1516C51.9286 61.9119 51.6276 62.641 51.0917 63.1786C50.5559 63.7162 49.8292 64.0183 49.0714 64.0183H20.5ZM20.5 46.8183C19.7422 46.8183 19.0155 46.5162 18.4797 45.9786C17.9439 45.441 17.6429 44.7119 17.6429 43.9516C17.6429 43.1913 17.9439 42.4622 18.4797 41.9246C19.0155 41.387 19.7422 41.0849 20.5 41.0849H49.0714C49.8292 41.0849 50.5559 41.387 51.0917 41.9246C51.6276 42.4622 51.9286 43.1913 51.9286 43.9516C51.9286 44.7119 51.6276 45.441 51.0917 45.9786C50.5559 46.5162 49.8292 46.8183 49.0714 46.8183H20.5ZM26.2143 92.6849C25.4565 92.6849 24.7298 92.3829 24.194 91.8453C23.6582 91.3077 23.3571 90.5786 23.3571 89.8183C23.3571 89.058 23.6582 88.3288 24.194 87.7912C24.7298 87.2536 25.4565 86.9516 26.2143 86.9516H74.7857V38.2183C74.7857 37.458 75.0867 36.7288 75.6226 36.1912C76.1584 35.6536 76.8851 35.3516 77.6429 35.3516C78.4006 35.3516 79.1273 35.6536 79.6632 36.1912C80.199 36.7288 80.5 37.458 80.5 38.2183V86.9516C80.5 88.4722 79.898 89.9305 78.8263 91.0057C77.7547 92.0809 76.3012 92.6849 74.7857 92.6849H26.2143Z" fill="white"/>
</svg>
