<svg width="81" height="81" viewBox="0 0 81 81" fill="none" xmlns="http://www.w3.org/2000/svg">
<path d="M41.7583 0.116966H8.7583C6.57026 0.116966 4.47184 0.905049 2.92467 2.30785C1.37749 3.71064 0.508301 5.61324 0.508301 7.5971V67.4381C0.508301 69.422 1.37749 71.3246 2.92467 72.7274C4.47184 74.1302 6.57026 74.9183 8.7583 74.9183H37.6333C35.9421 73.9833 34.3333 72.8238 32.9308 71.5522C30.3391 69.3906 28.244 66.7859 26.7659 63.8879C25.2878 60.9899 24.4559 57.8556 24.3179 54.6652C24.1799 51.4747 24.7385 48.291 25.9618 45.2969C27.185 42.3028 29.0487 39.5574 31.4458 37.2184C40.4795 28.1675 55.4945 26.7836 66.5083 33.7776V22.5574L41.7583 0.116966ZM37.6333 26.2974V5.72706L60.3208 26.2974H37.6333ZM67.787 63.3241C73.2733 55.4325 70.6333 44.9978 62.0121 40.0609C53.3083 35.0866 41.7583 37.5176 36.3545 45.297C30.827 53.1885 33.5083 63.5859 42.1296 68.5602C48.1521 72.0384 55.8245 72.0384 61.8883 68.635L74.7583 80.117L80.4921 74.9183L67.787 63.3241ZM52.0708 63.6981C49.3358 63.6981 46.7127 62.713 44.7788 60.9595C42.8448 59.206 41.7583 56.8277 41.7583 54.3479C41.7583 51.8681 42.8448 49.4898 44.7788 47.7364C46.7127 45.9829 49.3358 44.9978 52.0708 44.9978C54.8058 44.9978 57.4289 45.9829 59.3628 47.7364C61.2968 49.4898 62.3833 51.8681 62.3833 54.3479C62.3833 56.8277 61.2968 59.206 59.3628 60.9595C57.4289 62.713 54.8058 63.6981 52.0708 63.6981Z" fill="white"/>
</svg>
