<svg width="81" height="79" viewBox="0 0 81 79" fill="none" xmlns="http://www.w3.org/2000/svg">
<path d="M40.3264 34.7009L42.7034 36.7055C42.777 36.7649 42.8708 36.7933 42.965 36.7849C43.0593 36.7764 43.1465 36.7318 43.2083 36.6603L50.9048 27.5646C50.9644 27.4912 50.9931 27.3975 50.9846 27.3034C50.9762 27.2093 50.9312 27.1221 50.8594 27.0606L48.478 25.056L40.3264 34.7009ZM36.7466 40.5195L17.9819 24.7099L14.3302 29.0288L33.0957 44.8384L36.7466 40.5195ZM57.2758 16.2433L38.5147 0.426605L34.8576 4.74994L53.6241 20.5596L57.2758 16.2433ZM59.4431 53.1727H6.22389C5.56372 53.1604 4.91394 53.3379 4.35203 53.6841C3.79013 54.0302 3.33982 54.5304 3.05481 55.125C1.37457 58.4896 0.5 62.1977 0.5 65.9573C0.5 69.7168 1.37457 73.4249 3.05481 76.7896C3.33991 77.3841 3.79024 77.8842 4.35212 78.2303C4.914 78.5765 5.56374 78.754 6.22389 78.7418H75.6271C76.0706 78.7397 76.4953 78.5625 76.8084 78.249C77.1215 77.9354 77.2977 77.5109 77.2983 77.0682V75.4407C77.2974 74.9986 77.121 74.5748 76.8078 74.2621C76.4946 73.9495 76.0701 73.7734 75.6271 73.7725H10.7344C9.95792 73.7755 9.19833 73.5464 8.55349 73.1146C7.90865 72.6829 7.40811 72.0682 7.11639 71.3499C6.40423 69.6375 6.03764 67.8016 6.03764 65.9475C6.03764 64.0934 6.40423 62.2575 7.11639 60.5451C7.40987 59.8282 7.91146 59.2152 8.55667 58.7851C9.20187 58.355 9.96121 58.1273 10.737 58.1314H64.4345L59.4431 53.1727ZM60.636 51.1956C60.6803 51.2317 60.7203 51.2728 60.7551 51.3181L67.8836 58.403C68.3076 58.7943 68.6401 59.1936 69.1227 59.5983C72.2189 62.2081 77.1232 61.8354 79.3456 58.7171C80.3016 57.2272 80.6827 55.4413 80.418 53.6918C80.1532 51.9423 79.2606 50.3485 77.9064 49.207C77.7473 49.0757 77.5837 48.9479 77.4192 48.8299L51.447 30.3971L46.0965 36.7242L60.636 51.1956ZM70.906 71.5274C70.1039 70.2169 69.5939 68.7494 69.4107 67.2245C69.2276 65.6997 69.3755 64.1534 69.8446 62.6908C68.6574 62.1233 67.5859 61.341 66.6844 60.3836H10.737C10.4045 60.3756 10.0776 60.47 9.80056 60.6538C9.52355 60.8376 9.30987 61.102 9.18851 61.4112C7.98664 64.3213 7.98664 67.5879 9.18851 70.498C9.30991 70.8073 9.52354 71.0719 9.8005 71.256C10.0775 71.4401 10.4044 71.5348 10.737 71.5274H70.906ZM57.3941 64.8321C57.6923 64.8321 57.9783 64.9503 58.1892 65.1608C58.4001 65.3714 58.5186 65.6569 58.5186 65.9546C58.5186 66.2523 58.4001 66.5378 58.1892 66.7484C57.9783 66.9589 57.6923 67.0771 57.3941 67.0771H14.0884C13.9407 67.0771 13.7945 67.0481 13.658 66.9917C13.5216 66.9353 13.3976 66.8526 13.2932 66.7484C13.1888 66.6441 13.106 66.5204 13.0494 66.3842C12.9929 66.248 12.9638 66.102 12.9638 65.9546C12.9638 65.8072 12.9929 65.6612 13.0494 65.525C13.106 65.3888 13.1888 65.2651 13.2932 65.1608C13.3976 65.0566 13.5216 64.9739 13.658 64.9175C13.7945 64.8611 13.9407 64.8321 14.0884 64.8321H57.3941ZM21.9253 25.1021L35.6959 36.702L49.6798 20.1647L35.9101 8.56392L21.9253 25.1021Z" fill="white"/>
</svg>
