<svg width="86" height="106" viewBox="0 0 86 106" fill="none" xmlns="http://www.w3.org/2000/svg">
<path d="M53.3702 49.586C53.3702 75.0826 41.0609 87.8309 16.4423 87.8309C14.4537 87.8309 12.0674 87.5907 9.28337 87.1104C6.49936 86.6301 3.67557 85.9096 0.812012 84.949V60.9934C2.84037 62.3943 5.08746 63.5351 7.55331 64.4156C10.0589 65.2562 12.127 65.6765 13.7577 65.6765C18.3712 65.6765 21.8114 64.2555 24.0784 61.4137C26.3852 58.5318 27.5386 54.0889 27.5386 48.085V0.233856H53.3702V49.586Z" fill="white"/>
<path d="M62.2113 53.0143L62.2098 53.0134C52.3056 46.7704 39.1695 49.8142 33.0116 59.5877C26.7164 69.5041 29.7801 82.5494 39.5796 88.7855C45.9926 92.8701 54.0386 93.1325 60.6897 89.6682L72.8763 101.659L74.2904 103.051L75.6933 101.648L81.6022 95.7391L83.0118 94.3295L81.6068 92.9153L69.5922 80.8227C74.738 71.1154 71.5758 58.9287 62.2113 53.0143ZM50.8984 79.5718C48.6102 79.5718 46.4157 78.6628 44.7977 77.0448C43.1798 75.4269 42.2708 73.2324 42.2708 70.9442C42.2708 68.6561 43.1798 66.4616 44.7977 64.8436C46.4157 63.2256 48.6102 62.3166 50.8984 62.3166C53.1865 62.3166 55.381 63.2256 56.999 64.8436C58.617 66.4616 59.526 68.6561 59.526 70.9442C59.526 73.2324 58.617 75.4269 56.999 77.0448C55.381 78.6628 53.1865 79.5718 50.8984 79.5718Z" fill="white" stroke="#004860" stroke-width="4"/>
</svg>
