<svg width="81" height="82" viewBox="0 0 81 82" fill="none" xmlns="http://www.w3.org/2000/svg">
<path d="M32.1054 55.9676L25.0068 63.0663L22.4716 60.531C21.373 59.4324 19.5983 59.4324 18.4997 60.531C17.4011 61.6296 17.4011 63.4043 18.4997 64.5029L22.9786 68.9818C23.4857 69.4888 24.2462 69.8269 24.9223 69.8269C25.5984 69.8269 26.3589 69.5733 26.866 68.9818L35.9083 59.9395C37.0069 58.8409 37.0069 57.0662 35.9083 55.9676C34.9787 54.869 33.204 54.869 32.1054 55.9676Z" fill="white"/>
<path d="M60.1623 71.517C60.1623 73.7142 58.3876 75.4889 56.1904 75.4889H10.0493C7.85215 75.4889 6.07749 73.7142 6.07749 71.517V25.545C6.07749 24.7844 6.66905 24.1928 7.42961 24.1928H19.5987C21.8804 24.1928 23.7396 22.3337 23.7396 20.052V7.79839C23.7396 7.03782 24.3311 6.44627 25.0917 6.44627H56.1904C58.3876 6.44627 60.1623 8.22093 60.1623 10.4181V34.5873L65.7398 28.4182V10.4181C65.7398 5.09415 61.4299 0.868774 56.1904 0.868774H24.5846C22.0494 0.868774 19.5987 1.88286 17.7395 3.65752L3.28875 18.1928C1.51409 19.9675 0.5 22.4182 0.5 24.9534V71.6015C0.5 76.841 4.80988 81.2354 10.1339 81.2354H56.2749C61.5989 81.2354 65.8243 76.9255 65.8243 71.6861V59.855L60.2468 66.024V71.517H60.1623Z" fill="white"/>
<path d="M48.8383 43.9676H17.4015C15.8804 43.9676 14.6128 45.2352 14.6128 46.7563C14.6128 48.2775 15.8804 49.5451 17.4015 49.5451H46.4721L50.8665 44.7282C50.3595 44.3056 49.5989 43.9676 48.8383 43.9676Z" fill="white"/>
<path d="M48.8383 31.2914H17.4015C15.8804 31.2914 14.6128 32.559 14.6128 34.0801C14.6128 35.6013 15.8804 36.8689 17.4015 36.8689H48.8383C50.3595 36.8689 51.6271 35.6013 51.6271 34.0801C51.6271 32.559 50.3595 31.2914 48.8383 31.2914Z" fill="white"/>
<path d="M48.8387 18.5308H34.2189C32.6978 18.5308 31.4302 19.7984 31.4302 21.3196C31.4302 22.8407 32.6978 24.1083 34.2189 24.1083H48.9232C50.4444 24.1083 51.712 22.8407 51.712 21.3196C51.712 19.7984 50.3599 18.5308 48.8387 18.5308Z" fill="white"/>
<path d="M43.4297 66.1085C42.9227 67.6296 44.4438 68.9817 45.8805 68.3057L53.9932 64.8409C54.7537 64.5028 55.4298 64.0803 56.0214 63.4887L47.2326 55.545C46.7255 56.2211 46.3875 56.8972 46.134 57.7422L43.4297 66.1085Z" fill="white"/>
<path d="M79.6835 34.2492L74.2751 29.3477C73.261 28.4181 71.7398 28.5026 70.8103 29.5167L50.1904 52.1647L59.1482 60.362L79.8526 37.6295C80.7821 36.6999 80.6976 35.0942 79.6835 34.2492Z" fill="white"/>
</svg>
