<svg width="67" height="55" viewBox="0 0 67 55" fill="none" xmlns="http://www.w3.org/2000/svg">
<path d="M6.66667 54.2511C4.83333 54.2511 3.26444 53.5989 1.96 52.2945C0.655556 50.99 0.00222222 49.42 0 47.5845V7.58448C0 5.75115 0.653334 4.18226 1.96 2.87782C3.26667 1.57337 4.83556 0.920038 6.66667 0.917816H60C61.8333 0.917816 63.4033 1.57115 64.71 2.87782C66.0167 4.18448 66.6689 5.75337 66.6667 7.58448V47.5845C66.6667 49.4178 66.0144 50.9878 64.71 52.2945C63.4056 53.6011 61.8356 54.2534 60 54.2511H6.66667ZM33.3333 30.9178L6.66667 14.2511V47.5845H60V14.2511L33.3333 30.9178ZM33.3333 24.2511L60 7.58448H6.66667L33.3333 24.2511ZM6.66667 14.2511V7.58448V47.5845V14.2511Z" fill="white"/>
</svg>
